<svg xmlns="http://www.w3.org/2000/svg" xmlns:xlink="http://www.w3.org/1999/xlink" width="44" height="44" viewBox="0 0 44 44"><defs><style>.a{fill:#303c42;}.b{fill:#f2f2f2;}.c{fill:#fee4d0;}.d{fill:#d32f2f;}.e{fill:url(#a);}.f{fill:url(#b);}.g{opacity:0.1;}</style><linearGradient id="a" x1="-0.495" y1="1.883" x2="-0.467" y2="1.831" gradientUnits="objectBoundingBox"><stop offset="0" stop-opacity="0.102"/><stop offset="1" stop-opacity="0"/></linearGradient><linearGradient id="b" x1="-0.089" y1="1.249" x2="-0.047" y2="1.229" gradientUnits="objectBoundingBox"><stop offset="0" stop-color="#fff" stop-opacity="0.2"/><stop offset="1" stop-color="#fff" stop-opacity="0"/></linearGradient></defs><path class="a" d="M44,22A22,22,0,0,0,0,22c0,5.992,2.6,10.44,7.7,13.255C8.716,42.358,11.807,44,22,44c9.909,0,13.111-1.537,14.213-8.146C41.367,33.189,44,28.542,44,22Z"/><path class="b" d="M451.5,152a10.925,10.925,0,0,1-2.519-12.535A19.814,19.814,0,0,1,451.5,152Z" transform="translate(-409.5 -127.482)"/><g transform="translate(1.833 3.667)"><circle class="b" cx="9.167" cy="9.167" r="9.167" transform="translate(11)"/><path class="b" d="M24.02,139.467a10.92,10.92,0,0,1-2.48,12.5,16.1,16.1,0,0,1-.207-2.481A20.019,20.019,0,0,1,24.02,139.467Z" transform="translate(-21.333 -131.148)"/></g><path class="c" d="M120.852,344.417c-10.733,0-12.115-1.743-12.706-9.13,2.639-2.857,7.462-4.62,12.706-4.62s10.067,1.763,12.706,4.62C132.968,342.674,131.585,344.417,120.852,344.417Z" transform="translate(-98.852 -302.25)"/><path class="d" d="M63.178,53.706c.025-.271.054-.528.076-.812a.923.923,0,0,0-.217-.663c-2.917-3.418-8.415-5.541-14.348-5.541S37.257,48.812,34.341,52.23a.923.923,0,0,0-.217.663c0,.065.012.122.017.186A11.976,11.976,0,0,1,29.2,46.59,12.67,12.67,0,0,0,32.344,30.34,20.131,20.131,0,0,1,47.565,22a11,11,0,1,0,2.247,0A20.131,20.131,0,0,1,65.034,30.34a12.674,12.674,0,0,0,3.256,16.339A11.473,11.473,0,0,1,63.178,53.706Z" transform="translate(-26.689 -20.106)"/><g transform="translate(38.5 11.985)"><path class="b" d="M451.5,152a10.925,10.925,0,0,1-2.519-12.535A19.814,19.814,0,0,1,451.5,152Z" transform="translate(-448 -139.467)"/></g><g transform="translate(2.509 1.89)"><path class="d" d="M63.178,53.706c.025-.271.054-.528.076-.812a.923.923,0,0,0-.217-.663c-2.917-3.418-8.415-5.541-14.348-5.541S37.257,48.812,34.341,52.23a.923.923,0,0,0-.217.663c0,.065.012.122.017.186A11.976,11.976,0,0,1,29.2,46.59,12.67,12.67,0,0,0,32.344,30.34,20.131,20.131,0,0,1,47.565,22a11,11,0,1,0,2.247,0A20.131,20.131,0,0,1,65.034,30.34a12.674,12.674,0,0,0,3.256,16.339A11.473,11.473,0,0,1,63.178,53.706Z" transform="translate(-29.198 -21.996)"/></g><path class="e" d="M120.852,344.417c10.733,0,12.115-1.743,12.706-9.13-2.639-2.857-7.462-4.62-12.706-4.62s-10.067,1.763-12.706,4.62l9.035,9.035C118.265,344.387,119.48,344.417,120.852,344.417Z" transform="translate(-98.852 -302.25)"/><g transform="translate(15.583 31.167)"><path class="a" d="M182.708,362.667c-.714,0-1.375.444-1.375,3.667s.661,3.667,1.375,3.667,1.375-.444,1.375-3.667S183.422,362.667,182.708,362.667Z" transform="translate(-181.333 -362.667)"/><path class="a" d="M300.042,370c.714,0,1.375-.444,1.375-3.667s-.661-3.667-1.375-3.667-1.375.444-1.375,3.667S299.328,370,300.042,370Z" transform="translate(-288.584 -362.666)"/></g><path class="f" d="M44,22A22,22,0,0,0,0,22c0,5.992,2.6,10.44,7.7,13.255C8.716,42.358,11.807,44,22,44c9.909,0,13.111-1.537,14.213-8.146C41.367,33.189,44,28.542,44,22Z"/><path class="g" d="M22.051,269.748a11.094,11.094,0,0,0,.921-1c-.369-.132-.722-.28-1.08-.423C21.928,268.811,21.979,269.286,22.051,269.748Z" transform="translate(-20.011 -245.268)"/><path class="g" d="M449.07,178.439a11.035,11.035,0,0,0,3.407,6.681,19.3,19.3,0,0,0-1.1-9.422A17,17,0,0,1,449.07,178.439Z" transform="translate(-410.478 -160.6)"/><path class="g" d="M31.493,228.87a12.96,12.96,0,0,1-2.3,2.413,11.976,11.976,0,0,0,4.944,6.49c-.005-.065-.012-.121-.017-.186a.923.923,0,0,1,.217-.663c2.917-3.418,8.415-5.541,14.348-5.541s11.431,2.123,14.348,5.541a.923.923,0,0,1,.217.663c-.021.285-.05.542-.076.812a11.473,11.473,0,0,0,5.112-7.027,12.9,12.9,0,0,1-4.622-7.319c-4.963,3.91-12.5,6.412-20.937,6.412A39.7,39.7,0,0,1,31.493,228.87Z" transform="translate(-26.689 -204.798)"/></svg>